<svg width="129" height="45" viewBox="0 0 129 45" fill="none" xmlns="http://www.w3.org/2000/svg">
<path d="M126.935 43.9846C126.485 43.9846 126.151 43.9265 125.934 43.8105C125.73 43.6799 125.629 43.4986 125.629 43.2664V29.3822C125.629 29.1501 125.73 28.976 125.934 28.8599C126.151 28.7293 126.485 28.6641 126.935 28.6641H127.696C128.161 28.6641 128.494 28.7293 128.697 28.8599C128.9 28.976 129.002 29.1501 129.002 29.3822V43.2664C129.002 43.4986 128.9 43.6799 128.697 43.8105C128.494 43.9265 128.161 43.9846 127.696 43.9846H126.935Z" fill="#E1D7D1"/>
<path d="M112.195 43.9846C111.745 43.9846 111.411 43.9411 111.194 43.854C110.976 43.767 110.867 43.6509 110.867 43.5058C110.867 43.4478 110.874 43.3897 110.889 43.3317C110.918 43.2592 110.94 43.1866 110.954 43.1141L115.742 29.1211C115.8 28.9615 115.931 28.8454 116.134 28.7729C116.337 28.7003 116.62 28.6641 116.982 28.6641H118.114C118.491 28.6641 118.774 28.7003 118.963 28.7729C119.166 28.8454 119.296 28.9615 119.354 29.1211L124.142 43.1141C124.171 43.1866 124.186 43.2592 124.186 43.3317C124.2 43.3897 124.207 43.4478 124.207 43.5058C124.207 43.6509 124.12 43.767 123.946 43.854C123.772 43.9411 123.496 43.9846 123.119 43.9846H122.162C121.843 43.9846 121.574 43.9556 121.357 43.8975C121.139 43.825 121.001 43.7017 120.943 43.5276L117.896 34.1263C117.824 33.8942 117.759 33.6621 117.7 33.43C117.657 33.1978 117.613 32.9657 117.57 32.7336H117.483C117.439 32.9657 117.389 33.1978 117.331 33.43C117.287 33.6621 117.229 33.8942 117.156 34.1263L114.066 43.5276C114.008 43.6872 113.892 43.8032 113.718 43.8758C113.544 43.9483 113.326 43.9846 113.065 43.9846H112.195ZM113.827 40.742V38.1088H121.269V40.742H113.827Z" fill="#E1D7D1"/>
<path d="M105.536 44.1151C104.811 44.1151 104.158 44.0571 103.577 43.941C103.012 43.8395 102.526 43.7016 102.119 43.5275C101.713 43.3534 101.379 43.1866 101.118 43.027C100.915 42.8964 100.748 42.7731 100.618 42.657C100.487 42.5265 100.422 42.3741 100.422 42.2C100.422 42.0259 100.444 41.8301 100.487 41.6125C100.545 41.3803 100.618 41.1555 100.705 40.9378C100.806 40.7202 100.908 40.5389 101.009 40.3938C101.126 40.2487 101.242 40.1762 101.358 40.1762C101.488 40.1762 101.742 40.2705 102.119 40.4591C102.511 40.6332 102.968 40.8145 103.49 41.0031C104.027 41.1772 104.586 41.2643 105.166 41.2643C105.587 41.2643 105.928 41.2135 106.189 41.1119C106.464 41.0104 106.668 40.8508 106.798 40.6332C106.943 40.4156 107.016 40.1399 107.016 39.8062C107.016 39.458 106.914 39.1679 106.711 38.9357C106.523 38.7036 106.269 38.5005 105.949 38.3264C105.63 38.1378 105.268 37.9709 104.861 37.8259C104.47 37.6663 104.071 37.4922 103.664 37.3036C103.287 37.1295 102.925 36.9264 102.576 36.6942C102.228 36.4621 101.909 36.1792 101.619 35.8455C101.343 35.5118 101.126 35.1056 100.966 34.6268C100.806 34.1481 100.727 33.5823 100.727 32.9294C100.727 32.146 100.872 31.4786 101.162 30.9273C101.466 30.3615 101.865 29.9045 102.359 29.5563C102.852 29.2081 103.403 28.9542 104.013 28.7946C104.622 28.6205 105.246 28.5334 105.884 28.5334C106.348 28.5334 106.798 28.5697 107.233 28.6423C107.683 28.7148 108.089 28.8164 108.452 28.9469C108.815 29.063 109.105 29.2008 109.323 29.3604C109.482 29.462 109.613 29.5708 109.714 29.6868C109.816 29.8029 109.867 29.919 109.867 30.035C109.867 30.1801 109.838 30.3687 109.78 30.6008C109.736 30.8185 109.671 31.0361 109.584 31.2537C109.511 31.4713 109.417 31.6527 109.301 31.7978C109.185 31.9428 109.061 32.0154 108.931 32.0154C108.757 32.0154 108.525 31.9646 108.234 31.863C107.959 31.747 107.625 31.6382 107.233 31.5366C106.856 31.4206 106.428 31.3625 105.949 31.3625C105.543 31.3625 105.202 31.4133 104.927 31.5149C104.651 31.6164 104.441 31.7687 104.296 31.9719C104.165 32.1605 104.1 32.4071 104.1 32.7118C104.1 33.0745 104.208 33.3791 104.426 33.6258C104.644 33.8579 104.934 34.061 105.297 34.2351C105.674 34.3947 106.073 34.5688 106.494 34.7574C106.943 34.946 107.4 35.1564 107.865 35.3885C108.329 35.6206 108.757 35.9108 109.148 36.259C109.54 36.5927 109.852 37.0207 110.084 37.543C110.331 38.0507 110.454 38.6891 110.454 39.458C110.454 40.314 110.309 41.0394 110.019 41.6342C109.743 42.2291 109.366 42.7078 108.887 43.0705C108.409 43.4332 107.879 43.7016 107.299 43.8757C106.718 44.0353 106.131 44.1151 105.536 44.1151Z" fill="#E1D7D1"/>
<path d="M87.0655 43.9846C86.6157 43.9846 86.2821 43.9265 86.0644 43.8105C85.8613 43.6799 85.7598 43.4986 85.7598 43.2664V29.3822C85.7598 29.1501 85.8613 28.976 86.0644 28.8599C86.2821 28.7293 86.6157 28.6641 87.0655 28.6641H87.8054C88.0665 28.6641 88.2842 28.6858 88.4583 28.7293C88.6469 28.7584 88.8137 28.8237 88.9588 28.9252C89.1184 29.0268 89.2707 29.1864 89.4158 29.404L94.5734 36.9119C94.733 37.1295 94.8853 37.3762 95.0304 37.6518C95.1755 37.9275 95.3133 38.1814 95.4439 38.4135L95.5309 38.3917C95.5164 38.1451 95.4947 37.8839 95.4657 37.6083C95.4512 37.3181 95.4439 37.0135 95.4439 36.6943V29.3822C95.4439 29.1501 95.5455 28.976 95.7486 28.8599C95.9662 28.7293 96.2999 28.6641 96.7496 28.6641H97.2719C97.7362 28.6641 98.0699 28.7293 98.273 28.8599C98.4761 28.976 98.5776 29.1501 98.5776 29.3822V43.2664C98.5776 43.4986 98.4761 43.6799 98.273 43.8105C98.0699 43.9265 97.7362 43.9846 97.2719 43.9846H96.532C96.3144 43.9846 96.1185 43.9701 95.9444 43.9411C95.7703 43.912 95.6107 43.8613 95.4657 43.7887C95.3351 43.7017 95.2118 43.5711 95.0957 43.397L89.764 35.6279C89.6189 35.4103 89.4666 35.1637 89.307 34.888C89.1619 34.6124 89.0241 34.3585 88.8935 34.1263L88.8065 34.1481C88.8355 34.3947 88.8572 34.6631 88.8717 34.9533C88.8863 35.229 88.8935 35.5264 88.8935 35.8456V43.2664C88.8935 43.4986 88.792 43.6799 88.5888 43.8105C88.3857 43.9265 88.052 43.9846 87.5878 43.9846H87.0655Z" fill="#E1D7D1"/>
<path d="M76.3919 44.1151C74.1576 44.1151 72.4312 43.4477 71.2125 42.113C70.0083 40.7637 69.4062 38.8342 69.4062 36.3243C69.4062 33.8144 70.0083 31.8921 71.2125 30.5573C72.4312 29.2081 74.1576 28.5334 76.3919 28.5334C78.6406 28.5334 80.3598 29.2081 81.5495 30.5573C82.7537 31.8921 83.3558 33.8144 83.3558 36.3243C83.3558 38.8342 82.7537 40.7637 81.5495 42.113C80.3598 43.4477 78.6406 44.1151 76.3919 44.1151ZM76.3919 41.2643C77.5525 41.2643 78.4303 40.8508 79.0251 40.0238C79.6199 39.1824 79.9173 37.9492 79.9173 36.3243C79.9173 34.6849 79.6199 33.4517 79.0251 32.6247C78.4303 31.7978 77.5525 31.3843 76.3919 31.3843C75.2312 31.3843 74.3462 31.7978 73.7369 32.6247C73.1421 33.4517 72.8447 34.6849 72.8447 36.3243C72.8447 37.9492 73.1421 39.1824 73.7369 40.0238C74.3462 40.8508 75.2312 41.2643 76.3919 41.2643Z" fill="#E1D7D1"/>
<path d="M57.7466 43.941C57.2098 43.941 56.9414 43.6508 56.9414 43.0705V29.578C56.9414 28.9977 57.2098 28.7075 57.7466 28.7075H62.1208C63.354 28.7075 64.3405 28.8744 65.0804 29.208C65.8349 29.5272 66.3862 29.977 66.7344 30.5573C67.0825 31.1231 67.2566 31.7905 67.2566 32.5594C67.2566 33.0672 67.1478 33.546 66.9302 33.9957C66.7271 34.431 66.4442 34.8154 66.0815 35.1491C65.7333 35.4683 65.3416 35.7077 64.9063 35.8673V35.9543C65.4867 36.0704 65.9944 36.3097 66.4297 36.6724C66.8794 37.0206 67.2276 37.4414 67.4743 37.9346C67.7354 38.4279 67.866 38.9575 67.866 39.5233C67.866 40.4518 67.6629 41.2497 67.2566 41.9171C66.8649 42.57 66.2701 43.0705 65.4721 43.4187C64.6742 43.7669 63.6586 43.941 62.4255 43.941H57.7466ZM60.3145 41.0902H62.5343C63.1291 41.0902 63.5934 40.9378 63.927 40.6331C64.2607 40.3285 64.4276 39.8932 64.4276 39.3274C64.4276 38.7616 64.2317 38.3409 63.84 38.0652C63.4628 37.7751 62.9115 37.63 62.1861 37.63H60.3145V41.0902ZM60.3145 34.8009H61.9032C62.527 34.8009 62.9985 34.6413 63.3177 34.3221C63.6514 34.003 63.8182 33.6185 63.8182 33.1688C63.8182 32.632 63.6659 32.233 63.3612 31.9718C63.0566 31.6962 62.585 31.5584 61.9467 31.5584H60.3145V34.8009Z" fill="#E1D7D1"/>
<path d="M101.622 24.8339C101.172 24.8339 100.839 24.7759 100.621 24.6598C100.418 24.5293 100.316 24.3479 100.316 24.1158V10.2316C100.316 9.99945 100.418 9.82535 100.621 9.70929C100.839 9.57871 101.172 9.51343 101.622 9.51343H102.384C102.848 9.51343 103.182 9.57871 103.385 9.70929C103.588 9.82535 103.69 9.99945 103.69 10.2316V24.1158C103.69 24.3479 103.588 24.5293 103.385 24.6598C103.182 24.7759 102.848 24.8339 102.384 24.8339H101.622Z" fill="#E1D7D1"/>
<path d="M93.5711 24.9645C92.8457 24.9645 92.1929 24.9064 91.6125 24.7904C91.0467 24.6888 90.5607 24.551 90.1545 24.3769C89.7482 24.2028 89.4146 24.036 89.1534 23.8764C88.9503 23.7458 88.7835 23.6225 88.6529 23.5064C88.5223 23.3758 88.457 23.2235 88.457 23.0494C88.457 22.8753 88.4788 22.6795 88.5223 22.4618C88.5803 22.2297 88.6529 22.0048 88.7399 21.7872C88.8415 21.5696 88.9431 21.3882 89.0446 21.2432C89.1607 21.0981 89.2767 21.0255 89.3928 21.0255C89.5234 21.0255 89.7773 21.1198 90.1545 21.3084C90.5462 21.4825 91.0032 21.6639 91.5255 21.8525C92.0623 22.0266 92.6208 22.1136 93.2012 22.1136C93.6219 22.1136 93.9628 22.0629 94.224 21.9613C94.4996 21.8597 94.7028 21.7002 94.8333 21.4825C94.9784 21.2649 95.0509 20.9893 95.0509 20.6556C95.0509 20.3074 94.9494 20.0172 94.7463 19.7851C94.5577 19.553 94.3038 19.3499 93.9846 19.1758C93.6654 18.9871 93.3027 18.8203 92.8965 18.6752C92.5048 18.5156 92.1058 18.3415 91.6996 18.1529C91.3224 17.9788 90.9597 17.7757 90.6115 17.5436C90.2633 17.3115 89.9441 17.0286 89.6539 16.6949C89.3783 16.3612 89.1607 15.955 89.0011 15.4762C88.8415 14.9974 88.7617 14.4316 88.7617 13.7788C88.7617 12.9953 88.9068 12.3279 89.1969 11.7766C89.5016 11.2108 89.9006 10.7538 90.3939 10.4056C90.8871 10.0574 91.4384 9.80355 92.0478 9.64396C92.6571 9.46986 93.281 9.38281 93.9193 9.38281C94.3836 9.38281 94.8333 9.41908 95.2686 9.49162C95.7183 9.56416 96.1245 9.66572 96.4872 9.79629C96.8499 9.91236 97.1401 10.0502 97.3577 10.2098C97.5173 10.3113 97.6479 10.4201 97.7494 10.5362C97.851 10.6523 97.9018 10.7683 97.9018 10.8844C97.9018 11.0295 97.8728 11.2181 97.8147 11.4502C97.7712 11.6678 97.7059 11.8855 97.6189 12.1031C97.5463 12.3207 97.452 12.502 97.336 12.6471C97.2199 12.7922 97.0966 12.8647 96.966 12.8647C96.7919 12.8647 96.5598 12.814 96.2696 12.7124C95.994 12.5963 95.6603 12.4875 95.2686 12.386C94.8914 12.2699 94.4634 12.2119 93.9846 12.2119C93.5784 12.2119 93.2374 12.2627 92.9618 12.3642C92.6861 12.4658 92.4758 12.6181 92.3307 12.8212C92.2001 13.0098 92.1348 13.2565 92.1348 13.5611C92.1348 13.9238 92.2436 14.2285 92.4613 14.4751C92.6789 14.7073 92.969 14.9104 93.3317 15.0845C93.709 15.2441 94.1079 15.4182 94.5287 15.6068C94.9784 15.7954 95.4354 16.0057 95.8997 16.2379C96.3639 16.47 96.7919 16.7602 97.1836 17.1084C97.5753 17.442 97.8873 17.87 98.1194 18.3923C98.366 18.9001 98.4894 19.5385 98.4894 20.3074C98.4894 21.1634 98.3443 21.8888 98.0541 22.4836C97.7785 23.0784 97.4013 23.5572 96.9225 23.9199C96.4437 24.2826 95.9142 24.551 95.3339 24.7251C94.7535 24.8847 94.166 24.9645 93.5711 24.9645Z" fill="#E1D7D1"/>
<path d="M76.0033 24.8339C75.5535 24.8339 75.2198 24.7904 75.0022 24.7034C74.7846 24.6163 74.6758 24.5003 74.6758 24.3552C74.6758 24.2971 74.683 24.2391 74.6975 24.1811C74.7266 24.1085 74.7483 24.036 74.7628 23.9635L79.5505 9.97043C79.6085 9.81084 79.7391 9.69478 79.9422 9.62224C80.1453 9.5497 80.4282 9.51343 80.7909 9.51343H81.9226C82.2998 9.51343 82.5827 9.5497 82.7713 9.62224C82.9744 9.69478 83.105 9.81084 83.163 9.97043L87.9507 23.9635C87.9797 24.036 87.9942 24.1085 87.9942 24.1811C88.0087 24.2391 88.0159 24.2971 88.0159 24.3552C88.0159 24.5003 87.9289 24.6163 87.7548 24.7034C87.5807 24.7904 87.3051 24.8339 86.9278 24.8339H85.9703C85.6511 24.8339 85.3827 24.8049 85.1651 24.7469C84.9475 24.6744 84.8097 24.551 84.7516 24.3769L81.7049 14.9757C81.6324 14.7436 81.5671 14.5115 81.5091 14.2793C81.4656 14.0472 81.422 13.8151 81.3785 13.5829H81.2915C81.2479 13.8151 81.1972 14.0472 81.1391 14.2793C81.0956 14.5115 81.0376 14.7436 80.965 14.9757L77.8748 24.3769C77.8168 24.5365 77.7007 24.6526 77.5266 24.7251C77.3525 24.7977 77.1349 24.8339 76.8738 24.8339H76.0033ZM77.6354 21.5914V18.9582H85.0781V21.5914H77.6354Z" fill="#E1D7D1"/>
<path d="M60.5756 24.8339C60.2129 24.8339 59.9227 24.7977 59.7051 24.7251C59.502 24.6381 59.3787 24.5075 59.3352 24.3334L55.6356 10.3839C55.6211 10.3114 55.6066 10.2461 55.5921 10.1881C55.5776 10.1155 55.5703 10.0502 55.5703 9.99219C55.5703 9.8326 55.6574 9.71654 55.8315 9.644C56.0056 9.55695 56.2812 9.51343 56.6584 9.51343H57.6159C57.9351 9.51343 58.2035 9.53519 58.4211 9.57871C58.6533 9.62224 58.7984 9.78908 58.8564 10.0792L61.1196 21.4173H61.2067L63.8181 10.1663C63.8907 9.89064 64.0503 9.71654 64.2969 9.644C64.5436 9.55695 64.8265 9.51343 65.1456 9.51343H65.755C66.0887 9.51343 66.3861 9.55695 66.6472 9.644C66.9084 9.73105 67.068 9.91965 67.126 10.2098L69.6722 21.4173H69.7592L72.066 10.0792C72.1095 9.86162 72.2256 9.71654 72.4142 9.644C72.6028 9.55695 72.8277 9.51343 73.0888 9.51343H73.9593C74.4235 9.51343 74.7572 9.55695 74.9603 9.644C75.178 9.71654 75.2868 9.8326 75.2868 9.99219C75.2868 10.0502 75.2795 10.1155 75.265 10.1881C75.2505 10.2461 75.2287 10.3114 75.1997 10.3839L71.5002 24.3334C71.4566 24.5075 71.3261 24.6381 71.1084 24.7251C70.9053 24.7977 70.6224 24.8339 70.2597 24.8339H69.1281C68.7654 24.8339 68.4752 24.7977 68.2576 24.7251C68.04 24.6381 67.9094 24.5075 67.8659 24.3334L65.4721 13.9529H65.385L62.9694 24.3334C62.9259 24.5075 62.7953 24.6381 62.5777 24.7251C62.3601 24.7977 62.0699 24.8339 61.7072 24.8339H60.5756Z" fill="#E1D7D1"/>
<path d="M23.5487 5.3293C23.6328 5.28264 23.969 6.4055 24.1184 7.20088C24.2772 8.05247 24.1745 10.2141 23.9223 11.1311C23.6888 12.0295 23.2311 12.8904 22.6053 13.6484C21.9515 14.4251 21.3069 15.5481 21.0734 16.3248C21.008 16.54 21.0268 16.5307 21.3817 16.2125C22.3811 15.3142 23.0257 15.1925 26.9393 15.2299C29.1437 15.2393 30.1058 15.2112 30.5448 15.127C31.4975 14.9305 32.6744 14.4626 33.3376 14.0134C33.6738 13.7888 33.9634 13.6298 33.9914 13.6578C34.1221 13.7888 32.7397 14.9867 31.9551 15.4171C30.7315 16.0909 28.0041 16.5962 25.6036 16.6056C23.8289 16.6149 22.0915 17.3916 21.5685 18.4116C21.419 18.7204 21.391 18.9076 21.4284 19.3568C21.5125 20.4142 22.0449 21.2658 24.2866 23.9328C25.3047 25.14 25.5849 25.299 26.0519 24.9341C26.4816 24.5878 27.5277 24.3258 28.4525 24.3352C29.1904 24.3445 29.4146 24.382 30.2272 24.6908C32.4315 25.5143 32.4969 25.533 33.4963 25.533C34.1034 25.533 34.6172 25.4769 34.9628 25.3739C35.2523 25.2897 35.5326 25.2148 35.5887 25.2148C35.8875 25.2149 35.4672 26.1225 35.0188 26.4594C34.2903 27.0115 32.8799 27.2268 30.9557 27.0864C29.3772 26.9647 28.7607 27.0958 27.836 27.7508L27.5838 27.9287L28.0415 29.0984C28.5178 30.3243 29.0035 32.1116 29.3398 33.8709C29.6947 35.7331 29.9376 36.3133 30.5728 36.8654C31.2266 37.4269 31.5535 37.5579 33.403 38.0258C36.2611 38.737 35.1963 38.6902 48.0676 38.6902H48.4153C47.5572 40.316 46.5408 41.8449 45.3866 43.2563H3.0288C1.87454 41.8449 0.85809 40.316 0 38.6902H12.7697L15.5719 38.1755C20.2608 37.3146 20.6625 37.1649 21.2323 36.07C21.4191 35.6957 21.4471 35.5179 21.4471 34.5728C21.4471 33.5902 21.4284 33.4498 21.2042 33.0287C20.8679 32.3737 20.3729 32.0274 19.2801 31.6812C18.3647 31.3817 16.9636 31.1104 16.3845 31.1104C15.9268 31.1104 16.0109 30.97 16.6647 30.6425C17.8043 30.081 18.9158 29.9406 20.1861 30.212C20.5224 30.2869 20.8119 30.3243 20.8306 30.3055C20.8492 30.2867 20.6904 29.7346 20.4756 29.0797C19.8031 27.0022 18.2433 24.1948 17.4867 23.6801C16.8982 23.2871 16.0762 23.2403 15.1328 23.5585C13.1246 24.2322 11.1165 24.1012 9.47254 23.1935C8.60388 22.7069 8.62253 22.6508 9.61261 22.7257C10.584 22.8005 11.6676 22.6695 12.3681 22.3981C12.611 22.2951 13.1341 22.0051 13.5263 21.7431C14.6939 20.9477 15.1423 20.7792 16.2071 20.7417L17.1224 20.7044L17.0757 20.2739C17.0103 19.7124 17.1504 18.2993 17.3372 17.6162C17.5894 16.6243 18.0377 15.6042 18.6075 14.6965L19.1773 13.7888L19.0185 13.4051C18.7756 12.7969 18.0658 11.7581 17.5521 11.2528C17.0103 10.7288 15.8335 9.99885 15.2637 9.83975C14.5725 9.65259 14.806 9.55905 15.8241 9.6152C16.9169 9.67135 17.7576 9.90533 18.5982 10.3826C19.3081 10.785 19.5322 10.9534 20.1954 11.6085L20.7278 12.1232L21.1669 11.6271C22.5212 10.1298 23.3339 8.23954 23.4273 6.37733C23.4553 5.82522 23.5114 5.34802 23.5487 5.3293ZM18.813 32.0461C18.8504 32.0461 18.9998 32.2895 19.1399 32.5795C19.8498 34.1142 18.9812 35.7331 17.3746 35.9016C17.0851 35.9296 17.057 35.9109 16.9356 35.5085C16.6553 34.5728 16.9449 33.4311 17.6361 32.776C17.8977 32.5327 18.6729 32.0461 18.813 32.0461ZM14.1148 31.3911C14.4884 31.3256 15.3758 31.3536 15.5252 31.4472C15.6092 31.4941 15.3477 32.5796 15.1796 32.9165C14.9087 33.4218 14.3109 33.9832 13.7598 34.2265C13.2647 34.4417 12.7603 34.5166 11.9757 34.4886L11.6582 34.4792L11.7049 34.0112C11.7703 33.3562 12.2653 32.4017 12.7417 32.0087C13.19 31.6437 13.4983 31.5034 14.1148 31.3911ZM35.0935 27.2923C35.6259 27.3204 36.1117 27.414 36.448 27.545C37.5595 27.9755 38.2974 28.7054 38.643 29.7441C38.7737 30.1277 38.7737 30.212 38.671 30.2868C38.5962 30.3336 38.0825 30.3523 37.5127 30.3336C36.6348 30.3055 36.4106 30.2681 35.9622 30.0529C34.9721 29.5756 34.421 28.8176 34.3183 27.7695L34.2623 27.2455L35.0935 27.2923ZM15.1048 27.2736C15.6746 27.0396 16.4312 27.0771 16.9823 27.3485C17.7015 27.7228 18.1312 28.4434 18.1312 29.2856V29.7815L17.4774 29.9031C15.9736 30.1651 14.6939 29.3885 14.4324 28.041C14.3576 27.6573 14.4697 27.5262 15.1048 27.2736ZM10.911 24.382C11.1912 24.3727 11.2099 24.3913 11.2753 24.8031C11.4808 26.1974 10.7709 27.545 9.49124 28.1907C9.183 28.3498 8.23959 28.5837 7.93134 28.5837C7.89398 28.5837 7.85657 28.2281 7.85657 27.7883C7.85657 26.8151 8.08079 26.16 8.62252 25.5424C9.239 24.8499 10.117 24.4007 10.911 24.382ZM40.2589 20.826C40.483 20.8166 40.4831 20.8166 40.427 21.5746C40.2962 23.521 38.7177 25.0183 36.7936 25.0277C36.3546 25.0277 36.3452 25.0277 36.3452 24.7188C36.3452 23.9047 36.7562 22.9595 37.41 22.2483C38.1852 21.3968 39.2034 20.8915 40.2589 20.826ZM31.9177 21.4061C32.4688 20.6762 34.1221 20.0961 34.5144 20.4984C34.7479 20.723 34.7199 21.977 34.4677 22.6508C34.0941 23.6427 33.1601 24.3726 32.0579 24.5504L31.5629 24.6253L31.4134 24.2884C31.3293 24.0919 31.264 23.6801 31.264 23.2965C31.264 22.5946 31.4694 21.9957 31.9177 21.4061ZM4.38198 19.0386C4.74625 19.0386 5.25059 19.0854 5.51212 19.1416C6.09123 19.2632 6.86653 19.7966 7.30554 20.3768C7.65114 20.8447 7.95003 21.6214 7.95003 22.08V22.3326L7.1374 22.2952C6.11928 22.2391 5.29732 21.8834 4.69018 21.2377C4.25118 20.7698 3.8495 19.965 3.77478 19.4036L3.71879 19.0386H4.38198ZM9.46315 18.421C9.40712 17.5975 9.46317 17.4291 9.74337 17.4852C9.86479 17.5133 10.1264 17.5601 10.3319 17.5882C10.8923 17.6818 11.7516 18.1777 12.1159 18.6175C12.7137 19.3568 12.9939 20.33 12.8632 21.2284C12.7884 21.7243 12.695 21.7524 11.9291 21.5184C10.4906 21.0786 9.55656 19.9089 9.46315 18.421ZM26.7431 17.4852C26.8552 17.0828 26.8739 17.0641 27.1355 17.1108C27.2849 17.1389 27.5931 17.2606 27.8173 17.3729C28.6953 17.8128 29.2464 18.7391 29.2464 19.7966C29.2464 20.227 29.0502 20.9289 28.8634 21.1535C28.7046 21.3406 28.0508 21.0132 27.5091 20.4704C26.7245 19.6843 26.4442 18.6082 26.7431 17.4852ZM34.337 15.0709C35.0001 14.9305 35.682 14.9492 36.3919 15.127C36.8963 15.2486 37.821 15.7727 38.1572 16.1189L38.4188 16.3996L38.1106 16.6898C37.6529 17.1109 36.7562 17.532 36.093 17.6349C35.3738 17.7566 34.4117 17.5788 33.7392 17.2138C33.1788 16.905 32.3756 16.1097 32.4502 15.9318C32.5249 15.7259 33.6177 15.23 34.337 15.0709ZM30.6941 9.0256C30.7502 9.0256 30.853 9.18476 30.9184 9.37192C30.9837 9.56847 31.0585 10.1299 31.0865 10.6259C31.1519 11.7207 30.9464 12.5162 30.3859 13.3771C30.0403 13.9198 29.2464 14.734 29.0783 14.734C29.0315 14.7339 28.8728 14.4719 28.7234 14.1445C28.4805 13.6204 28.4525 13.4707 28.4525 12.5349C28.4525 11.5898 28.4711 11.4681 28.714 10.9908C29.0969 10.2516 30.3298 9.02569 30.6941 9.0256ZM13.3208 10.682C13.6664 10.5978 14.9087 10.6165 15.3291 10.7194C16.0202 10.8691 15.9922 10.8318 15.8334 11.3745C15.4037 12.8062 14.2082 13.6391 12.7791 13.48C12.1626 13.4052 11.2472 13.0402 11.1631 12.8249C11.0978 12.6471 11.4341 12.0014 11.8357 11.5616C12.1346 11.2247 12.8725 10.785 13.3208 10.682ZM37.5221 6.96692C37.5875 6.96698 37.709 7.14474 37.8023 7.35993C38.0359 7.94013 38.0919 9.40935 37.8957 10.0831C37.6996 10.7569 37.0364 11.6365 36.4199 12.0295C35.8875 12.3757 35.0283 12.7032 34.9255 12.6004C34.8881 12.563 34.8134 12.2261 34.7573 11.8517C34.4865 10.1018 35.3645 8.26763 36.9617 7.25698C37.2139 7.0979 37.4661 6.96692 37.5221 6.96692ZM9.14556 7.81844C9.7994 7.65936 10.911 7.70615 11.5088 7.90267C12.3588 8.19277 13.5543 9.04434 13.5543 9.36252C13.5543 9.63389 11.817 10.1392 10.8643 10.1486C9.76211 10.1486 8.27693 9.66194 7.48299 9.0256L7.24946 8.8385L7.48299 8.642C7.80056 8.37063 8.71588 7.92139 9.14556 7.81844ZM15.7306 4.81461C15.8054 4.81461 16.0295 4.93625 16.2257 5.07662C17.524 6.02177 17.8323 7.45352 17.0383 8.81978L16.8048 9.21279L16.4312 9.00696C15.9362 8.72622 15.5438 8.26765 15.2543 7.64067C15.0581 7.21021 15.0301 7.0324 15.0675 6.49901C15.1235 5.80655 15.5065 4.81469 15.7306 4.81461ZM19.4388 4.33729C19.8311 4.22499 20.2235 4.24371 20.7372 4.40279C21.2603 4.55252 21.83 5.01109 22.1476 5.5164C22.3718 5.88135 22.5213 6.68615 22.4559 7.12597C22.4092 7.42543 22.3998 7.43475 21.9141 7.43475C20.4196 7.43474 19.2988 6.39607 19.2334 4.94561C19.2054 4.44029 19.224 4.40279 19.4388 4.33729ZM27.9854 1.47378C28.0321 1.49249 28.0975 1.60479 28.1349 1.73579C28.359 2.54057 28.1162 4.10339 27.6305 4.92689C27.1635 5.73167 26.0332 6.5832 25.2393 6.74229C24.9778 6.79843 24.9778 6.78907 24.9218 6.24632C24.7256 4.43089 25.5663 2.80266 27.1822 1.86687C27.5744 1.63296 27.9293 1.46448 27.9854 1.47378ZM21.774 0.257299C21.9328 -0.0140802 21.9795 -0.0421531 22.2037 0.0420681C22.3344 0.0982224 22.624 0.257273 22.8482 0.41635C23.6141 0.940394 24.0905 1.99789 23.9597 2.87753C23.885 3.37351 23.4646 4.34669 23.3245 4.34669C23.1097 4.33733 22.4465 3.99109 22.1289 3.701C21.2789 2.96172 21.1108 1.3241 21.774 0.257299Z" fill="#E1D7D1"/>
</svg>
