<svg width="43" height="43" viewBox="0 0 43 43" fill="none" xmlns="http://www.w3.org/2000/svg">
<path d="M17.7314 2.63951C17.5714 2.74616 16.7182 3.01279 15.785 3.19943C14.8518 3.38607 13.9453 3.67936 13.7853 3.83933C13.5987 4.02597 13.0388 4.31926 12.5322 4.53256C9.70595 5.67905 5.6799 9.70511 4.5334 12.5314C4.3201 13.0379 4.02681 13.5979 3.84017 13.7845C3.6802 13.9445 3.38691 14.851 3.20027 15.7842C3.01363 16.7174 2.747 17.5706 2.64035 17.7039C2.3204 18.0505 2.3204 24.6095 2.64035 24.9295C2.747 25.0895 3.01363 25.9427 3.20027 26.8759C3.38691 27.809 3.6802 28.7156 3.84017 28.8756C4.02681 29.0622 4.3201 29.6221 4.5334 30.1287C5.6799 32.9549 9.70595 36.981 12.5322 38.1275C13.0388 38.3408 13.5987 38.6341 13.7853 38.8207C13.9453 38.9807 14.8518 39.274 15.785 39.4606C16.7182 39.6473 17.5714 39.9139 17.7047 40.0205C18.0514 40.3405 24.6104 40.3405 24.957 40.0205C25.0903 39.9139 25.9435 39.6473 26.8767 39.4606C27.8099 39.274 28.7164 38.9807 28.8764 38.8207C29.063 38.6341 29.6229 38.3408 30.1295 38.1275C32.9824 36.9543 36.9818 32.9816 38.1283 30.1287C38.3416 29.6221 38.6349 29.0622 38.8216 28.8756C38.9815 28.7156 39.2748 27.809 39.4615 26.8759C39.6481 25.9427 39.9147 25.0895 40.0214 24.9295C40.3413 24.6095 40.3413 18.0505 40.0214 17.7039C39.9147 17.5706 39.6481 16.7174 39.4615 15.7842C39.2748 14.851 38.9815 13.9445 38.8216 13.7845C38.6349 13.5979 38.3416 13.0379 38.1283 12.5314C36.9818 9.67845 32.9824 5.70572 30.1295 4.53256C29.6229 4.31926 29.063 4.02597 28.8764 3.83933C28.7164 3.67936 27.8099 3.38607 26.8767 3.19943C25.9435 3.01279 25.0903 2.74616 24.9303 2.63951C24.6104 2.31956 18.0514 2.31956 17.7314 2.63951ZM25.4636 5.27911C25.7569 5.43909 26.6367 5.75904 27.4099 5.999C28.1565 6.23897 28.7964 6.53226 28.7964 6.61225C28.7964 6.71889 29.303 7.03885 29.8896 7.33214C31.3027 7.9987 34.6622 11.3582 35.3288 12.7713C35.622 13.3579 35.942 13.8645 36.0486 13.8645C36.1553 13.8645 36.4486 14.5577 36.6885 15.3843C36.9285 16.2375 37.2485 17.0907 37.4351 17.304C37.835 17.8106 37.835 24.8495 37.4351 25.3561C37.2485 25.5694 36.9285 26.4226 36.6885 27.2758C36.4486 28.1023 36.1553 28.7956 36.0486 28.7956C35.942 28.7956 35.702 29.1422 35.5154 29.5688C35.0621 30.582 34.1556 31.7285 33.8356 31.7285C33.6757 31.7285 32.0759 30.2353 30.2628 28.3956C27.4633 25.6227 26.93 24.9561 26.93 24.2629C26.93 23.463 26.9567 23.463 28.3165 23.463C29.5963 23.463 29.7563 23.543 30.8228 24.6629C31.436 25.3294 32.0759 25.8627 32.2359 25.8627C32.5825 25.8627 33.8623 24.5829 33.8623 24.2363C33.8623 24.1029 33.1957 23.3297 32.3692 22.5298L30.8761 21.0634H28.9031H26.93V19.7569C26.93 18.6371 27.0367 18.3971 27.6499 17.9705C30.2362 16.2908 30.3962 16.0242 30.3962 13.4645V11.1982H29.3297H28.2632V12.7713V14.3177L26.7967 15.4376C25.9702 16.0242 25.2769 16.5307 25.2236 16.5307C25.1703 16.5307 25.0636 15.7309 25.0103 14.771C24.9037 13.1713 24.8237 12.9313 24.0238 12.2381C21.6775 10.2117 17.998 11.3582 17.6781 14.2111C17.5981 14.9043 17.4648 15.4642 17.3848 15.4642C17.3048 15.4642 16.6116 14.7977 15.8117 13.9978C14.8785 13.0113 14.3986 12.2914 14.3986 11.8648C14.3986 11.3315 14.2653 11.1982 13.7053 11.1982C13.0121 11.1982 10.9324 9.41182 10.9324 8.82524C10.9324 8.47863 12.1056 7.5721 13.0921 7.1455C13.5187 6.95886 13.8653 6.71889 13.8653 6.61225C13.8653 6.5056 14.5586 6.21231 15.4118 5.97234C16.2383 5.73238 17.0648 5.43909 17.1982 5.33244C17.6781 4.95916 18.9846 4.85251 21.9974 4.90584C23.6239 4.95916 25.1969 5.11914 25.4636 5.27911ZM10.6658 12.5314C11.919 13.7845 12.2656 14.2911 12.2656 14.931C12.2656 15.8642 12.9855 16.6641 15.0118 17.9705C15.6251 18.3971 15.7317 18.6371 15.7317 19.7569V21.0634H13.7587H11.7856L10.2925 22.5298C9.46599 23.3297 8.79942 24.1029 8.79942 24.2363C8.79942 24.5829 10.0792 25.8627 10.4258 25.8627C10.5858 25.8627 11.2257 25.3294 11.839 24.6629C12.9055 23.543 13.0654 23.463 14.3453 23.463H15.7317V24.5829C15.705 25.6227 15.0385 26.9292 14.5319 26.9292C14.4252 26.9292 13.8653 27.3025 13.3054 27.7557L12.2656 28.5823V30.8219V33.0616H13.3321H14.3986V31.4618C14.3986 30.2087 14.4786 29.8621 14.7985 29.8621C15.0385 29.8621 15.2784 29.6754 15.3584 29.4621C15.4384 29.2488 15.865 28.9022 16.265 28.6889C16.9582 28.3423 17.1182 28.369 17.9714 28.9555C18.7713 29.5155 19.1979 29.5954 21.3309 29.5954C23.4639 29.5954 23.8905 29.5155 24.6904 28.9555C25.5436 28.369 25.7035 28.3423 26.3968 28.6889C26.7967 28.9022 27.2233 29.2488 27.3033 29.4621C27.3833 29.6754 27.6232 29.8621 27.8632 29.8621C28.1832 29.8621 28.2632 30.2087 28.2632 31.4618V33.0616H29.3297C29.9162 33.0616 30.3962 32.9283 30.3962 32.795C30.3962 32.315 30.9028 32.5283 31.356 33.1949C31.756 33.8348 31.756 33.9148 31.356 34.3681C31.1161 34.6347 30.4495 35.0879 29.8629 35.3546C29.2763 35.6212 28.7964 35.9412 28.7964 36.0478C28.7964 36.1278 28.1565 36.4211 27.4099 36.661C26.6367 36.901 25.7035 37.2476 25.3569 37.4076C24.5037 37.8342 17.8114 37.8342 17.3048 37.4343C17.0915 37.2476 16.2383 36.9277 15.4118 36.6877C14.5586 36.4477 13.8653 36.1545 13.8653 36.0478C13.8653 35.9412 13.3587 35.6212 12.7722 35.3279C11.359 34.6613 7.99955 31.3019 7.33298 29.8887C7.03969 29.3022 6.71974 28.7956 6.61309 28.7956C6.50644 28.7956 6.21315 28.1023 5.97318 27.2491C5.73322 26.4226 5.41327 25.5694 5.22663 25.3561C4.82669 24.8495 4.82669 18.1572 5.25329 17.304C5.41327 16.9573 5.75988 16.0242 5.99985 15.2509C6.23981 14.5044 6.5331 13.8645 6.61309 13.8645C6.71974 13.8645 6.9597 13.5179 7.14634 13.0913C7.59961 12.0781 8.50614 10.9316 8.82609 10.9316C8.98606 10.9316 9.8126 11.6515 10.6658 12.5314ZM22.504 14.531C22.744 14.8777 22.9306 15.4909 22.9306 15.8642C22.9306 16.5041 22.8773 16.5307 21.3309 16.5307C19.7578 16.5307 19.7311 16.5307 19.7311 15.7842C19.7311 14.0245 21.5975 13.1446 22.504 14.531ZM24.5304 20.6635C24.5304 21.6233 24.4771 22.3965 24.3971 22.3965C24.3171 22.3965 23.4639 21.6233 22.504 20.6635L20.7443 18.9304H22.6373H24.5304V20.6635ZM21.3309 23.1697L24.2371 26.076L23.6239 26.6359C23.1439 27.0892 22.6907 27.1958 21.3309 27.1958C19.8378 27.1958 19.5178 27.1158 18.8779 26.4759C18.158 25.7827 18.1313 25.676 18.1313 23.0098C18.1313 21.49 18.1847 20.2635 18.2913 20.2635C18.3713 20.2635 19.7311 21.57 21.3309 23.1697Z" fill="#E1D7D1"/>
</svg>
