<svg width="48" height="48" viewBox="0 0 48 48" fill="none" xmlns="http://www.w3.org/2000/svg">
<path d="M25.6828 4.4279C25.4467 4.54597 24.4725 4.81165 23.5279 5.01829C22.6128 5.1954 21.6682 5.54963 21.432 5.78579C21.1959 6.02194 20.9007 6.19906 20.7531 6.19906C20.1627 6.19906 18.1554 8.67869 17.4174 10.3318C17.0041 11.2174 17.2108 13.9627 17.6831 14.1102C17.8602 14.1693 18.0078 14.4054 18.0078 14.6416C18.0078 14.8482 18.3915 15.3205 18.8639 15.6748C19.6904 16.2652 19.7199 16.4128 19.838 19.1581C19.9266 21.8148 20.0151 22.11 21.0188 23.7631C21.7272 24.9439 22.0224 25.6523 21.8453 25.977C21.7272 26.2132 21.4616 27.2168 21.2549 28.191C21.0483 29.1651 20.7531 30.0802 20.6055 30.2573C20.1922 30.7296 20.3398 33.534 20.8121 33.9473C21.5206 34.5376 22.4357 33.534 22.4357 32.2351C22.4357 31.0839 23.2918 27.394 23.6165 27.1578C23.705 27.0692 24.0297 26.4493 24.2954 25.7409C24.8858 24.2649 24.9744 24.1468 27.1883 21.7558L28.8709 19.9551L29.6679 20.8997C30.1107 21.431 30.6421 21.8443 30.8487 21.8443C31.0553 21.8443 31.2915 21.9919 31.3505 22.169C31.5572 22.7889 34.1844 22.5528 35.6308 21.8148C37.1659 21.0178 39.1141 18.7743 39.4093 17.4164C39.5274 16.9441 39.734 16.4718 39.8816 16.3832C40.0292 16.2652 40.1473 15.7338 40.1473 15.1729C40.1473 14.3464 39.8816 13.8741 38.8189 12.8114C37.1954 11.1878 35.926 10.627 34.0073 10.627C30.3764 10.627 28.3396 12.9 28.3396 16.8851C28.3396 17.6821 28.2215 18.302 28.0444 18.302C27.6311 18.302 24.2069 21.6082 24.2069 21.9919C24.2069 22.169 23.9412 22.5233 23.6165 22.8185C23.0261 23.2908 22.9966 23.2908 22.6719 22.5233C22.4652 22.051 22.17 21.6082 22.0224 21.5196C21.8748 21.4015 21.6977 20.3093 21.6092 19.0695L21.4616 16.826H22.908C24.0002 16.826 24.6496 16.6194 25.5943 15.9995C28.7824 13.9036 29.9041 10.6565 28.8119 6.93704C28.1329 4.69357 26.9226 3.71943 25.6828 4.4279ZM26.4503 6.73041C27.0407 7.11416 27.513 9.12148 27.3064 10.3318C26.9817 12.2505 24.2954 15.0549 22.7604 15.0549C22.1995 15.0549 22.1995 14.9958 22.5833 13.8446C23.2622 11.9849 23.1737 11.5125 22.2291 11.5125C21.5501 11.5125 21.314 11.7487 20.8121 12.8409C20.3693 13.8446 20.1627 14.0807 19.8675 13.8151C19.6609 13.6379 19.4838 13.3132 19.4838 13.1066C19.4838 12.8704 19.3657 12.6933 19.1886 12.6933C18.303 12.6933 19.8675 9.59379 21.3435 8.41301C21.8748 7.99974 22.4357 7.55695 22.6128 7.37983C23.4098 6.75993 25.8599 6.31714 26.4503 6.73041ZM35.2471 12.6933C35.9556 12.959 38.081 14.8187 38.081 15.1729C38.081 15.7929 36.9297 17.9478 36.1917 18.7448C35.0405 19.9551 34.2434 20.3684 33.0036 20.3684C32 20.3388 30.524 19.3942 30.8192 18.9514C30.9078 18.8038 31.5867 18.5086 32.3247 18.302C33.0627 18.0954 33.6531 17.8297 33.6531 17.6821C33.6531 17.564 33.9482 17.4164 34.332 17.3574C34.8043 17.2983 35.0109 17.0327 35.07 16.4128L35.1881 15.5567L33.6235 15.7338C32.7675 15.8519 32 16.029 31.9114 16.1766C31.8229 16.3242 31.3505 16.5308 30.9078 16.6489C30.0812 16.8555 30.0812 16.826 30.2878 15.7338C30.7011 13.3723 33.1512 11.8668 35.2471 12.6933Z" fill="#E1D7D1"/>
<path d="M4.42843 27.3054C4.13323 27.6597 4.13323 27.8368 4.42843 28.191C4.72362 28.5748 5.99295 28.6338 12.2806 28.6338H19.7785V27.7482V26.8626H12.2806C5.99295 26.8626 4.72362 26.9217 4.42843 27.3054Z" fill="#E1D7D1"/>
<path d="M24.502 27.7482V28.6338H33.4758C41.0918 28.6338 42.4792 28.5748 42.804 28.191C43.0991 27.8368 43.0991 27.6597 42.804 27.3054C42.4792 26.9217 41.0918 26.8626 33.4758 26.8626H24.502V27.7482Z" fill="#E1D7D1"/>
<path d="M17.5352 29.5192C17.2105 29.8439 11.2476 30.4638 9.44687 30.3753C6.37686 30.1982 5.63888 30.4048 4.78281 31.7627C4.25147 32.5892 4.16291 32.9139 4.4581 33.2386C4.98945 33.8881 6.05215 33.7405 6.49494 32.9139C6.96725 32.0284 8.47273 31.8217 8.1185 32.6778C8.00042 32.973 7.82331 33.4748 7.73475 33.7995C7.64619 34.1242 7.43956 34.4785 7.29196 34.5965C7.11484 34.6851 6.93773 36.4858 6.84917 38.5816C6.73109 41.8288 6.79013 42.4192 7.2034 42.7734C7.58715 43.0981 7.76427 43.0981 8.1185 42.8029C8.44321 42.5372 8.56129 41.7993 8.56129 40.0281C8.56129 37.2828 8.91552 36.2791 9.41735 37.578C9.59447 38.0503 9.74207 38.8178 9.74207 39.3196C9.74207 41.2384 12.1922 43.6295 13.1663 42.6553C13.7862 42.0354 13.6681 41.1794 12.9006 40.8251C12.0741 40.4414 11.6018 39.4967 11.3656 37.7256C11.2476 36.8695 10.8933 35.9839 10.4505 35.4526C10.0668 34.9803 9.74207 34.4489 9.74207 34.2423C9.74207 33.829 11.4247 32.1759 11.8379 32.1759C12.3102 32.1759 12.2512 34.5965 11.7789 34.7737C11.6313 34.8327 11.5132 35.2755 11.5132 35.7478C11.5132 36.4563 11.6313 36.6039 12.2217 36.6039C12.635 36.6039 13.1368 36.3972 13.4025 36.1611C13.9633 35.5707 14.288 33.9176 14.0519 32.7663C13.9043 31.9693 13.9633 31.8808 14.6128 31.8808C15.2327 31.8808 15.3212 32.0284 15.5279 33.5634C15.705 35.0984 15.8821 35.3936 17.1514 36.6334C17.9484 37.4009 18.5979 38.1389 18.5979 38.2865C18.5979 39.054 17.9189 40.707 17.5647 40.8546C17.0038 41.0613 17.0038 42.3306 17.5647 42.8029C17.8894 43.0686 18.1256 43.0391 18.7159 42.5963C19.4539 42.0649 19.8672 41.2679 20.2214 39.7624C20.31 39.2901 20.5461 38.9654 20.7528 39.054C21.2546 39.2016 21.845 40.4414 21.845 41.3565C21.845 42.4192 22.8487 43.3047 23.4686 42.8029C24.5313 41.9173 23.4686 38.1093 21.9926 37.4304C21.5793 37.2533 21.2546 36.9876 21.2546 36.8695C21.2546 36.7514 20.9594 36.6039 20.5757 36.4858C20.1919 36.3972 19.3359 35.8068 18.6569 35.1869C17.5942 34.2128 17.4171 33.8586 17.4171 32.8549C17.4171 31.7922 17.5057 31.6151 18.2141 31.438C19.3654 31.1723 19.7786 30.759 19.7786 29.9325C19.7786 29.3421 19.631 29.224 18.8045 29.224C18.2732 29.224 17.6828 29.3716 17.5352 29.5192Z" fill="#E1D7D1"/>
<path d="M23.0257 29.9326C23.0257 30.3754 23.3209 30.8772 23.7636 31.2019L24.5311 31.7333L23.9112 32.4122C23.1437 33.2387 22.7305 34.5671 22.7305 36.2202C22.7305 37.4305 22.7895 37.4895 23.5865 37.4895C24.354 37.4895 24.4426 37.401 24.5607 36.1907C24.7378 34.7147 25.8005 33.0026 26.3909 33.2387C26.5975 33.3273 27.0403 33.9472 27.3355 34.6261C27.6307 35.3051 28.0144 35.9545 28.1915 36.0726C28.3687 36.1907 28.4867 37.6076 28.4867 39.3788C28.4867 42.9211 28.841 43.7771 29.8446 42.5373C30.2874 41.9765 30.4055 41.3861 30.4055 39.5264C30.4055 37.2534 30.435 37.1943 30.9959 37.4895C31.3501 37.6666 31.7339 38.3456 31.911 39.1131C32.1767 40.2053 32.3833 40.4415 32.9146 40.4415C33.8888 40.4415 34.4201 39.7035 34.0069 38.8769C33.8297 38.5227 33.5936 37.9028 33.505 37.4895C33.2394 36.5154 31.4387 34.9213 30.376 34.6852C29.8151 34.5671 29.3133 34.0948 28.8115 33.2092C28.0144 31.8513 25.83 29.8145 25.1806 29.8145C24.9739 29.8145 24.7968 29.6669 24.7968 29.5193C24.7968 29.3422 24.4131 29.2241 23.9112 29.2241C23.1733 29.2241 23.0257 29.3422 23.0257 29.9326Z" fill="#E1D7D1"/>
<path d="M27.8074 29.5782C27.6007 29.7849 27.4531 30.2277 27.4531 30.6114C27.4531 31.438 28.8701 31.8808 31.4678 31.8808H33.2684L33.1208 32.7663C32.9437 33.9766 33.298 35.6002 33.8293 36.1611C34.095 36.3972 34.5968 36.6039 35.0101 36.6039C35.6005 36.6039 35.7185 36.4563 35.7185 35.7183C35.7185 35.2164 35.6005 34.8327 35.4529 34.8327C35.0986 34.8327 34.8625 33.8586 35.0396 32.9435C35.2462 31.9693 35.4529 31.9693 36.5746 33.032C37.5487 33.9471 37.7554 34.7441 37.0764 35.0098C36.5156 35.2164 35.7185 37.2533 35.7185 38.4931C35.7185 39.4672 34.6263 41.0318 33.9474 41.0318C33.5046 41.0318 33.5932 42.3896 34.0655 42.7734C35.0691 43.5999 37.4897 41.1794 37.4897 39.3196C37.4897 38.8178 37.6373 38.0503 37.8144 37.578C38.3162 36.2791 38.6705 37.2828 38.6705 40.0281C38.6705 41.7993 38.7886 42.5372 39.1133 42.8029C39.4675 43.0981 39.6446 43.0981 40.0284 42.7734C40.4416 42.4192 40.5007 41.8288 40.3826 38.5816C40.294 36.4858 40.1169 34.6851 39.9398 34.5965C39.7922 34.4785 39.5856 34.1242 39.497 33.7995C39.4085 33.4748 39.2313 32.973 39.1133 32.6778C38.759 31.8217 40.2645 32.0284 40.7368 32.9139C41.1796 33.7405 42.2423 33.8881 42.7737 33.2386C43.0689 32.9139 42.9803 32.5892 42.449 31.7627C41.5929 30.4048 40.8254 30.1982 37.7849 30.3753C35.7776 30.4933 29.1948 29.903 28.8405 29.5487C28.4273 29.1355 28.2501 29.1355 27.8074 29.5782Z" fill="#E1D7D1"/>
</svg>
