<svg width="32" height="33" viewBox="0 0 32 33" fill="none" xmlns="http://www.w3.org/2000/svg">
<path d="M24.2338 0C25.0823 0.0314239 25.0823 0.0314239 25.9479 0.0634826C25.4451 0.817656 25.4451 0.817656 24.9321 1.58706C24.6411 2.83087 24.6411 2.83087 24.9321 4.12637C26.0026 5.28285 26.0026 5.28285 27.4079 6.25303C27.8675 6.59542 28.3271 6.93781 28.8006 7.29058C29.1999 7.58714 29.5993 7.8837 30.0107 8.18925C31.0264 9.20497 31.0264 9.20497 31.0899 10.8555C30.2874 13.5307 28.7035 14.313 26.4557 15.8072C25.1718 16.7904 25.1718 16.7904 24.4243 17.8386C24.4232 18.8465 24.4232 18.8465 24.9321 19.87C26.0646 20.8352 26.0646 20.8352 27.4397 21.6793C29.0641 22.7287 29.9408 23.3202 31.0264 24.9487C31.0627 26.5806 30.8887 27.585 29.7786 28.8171C28.1403 30.2519 26.4075 31.6553 24.4243 32.5666C23.2498 32.4079 23.2498 32.4079 22.3928 32.0587C23.1167 29.887 24.5614 29.4498 26.4894 28.3489C27.5804 27.5598 27.5804 27.5598 27.767 26.25C27.3523 24.424 26.4949 23.9368 24.9956 22.8537C23.4423 21.7164 22.453 20.9761 21.3771 19.3622C21.1946 18.1144 21.1946 18.1144 21.3771 16.8229C22.1945 15.833 22.1945 15.833 23.2816 14.9501C23.6351 14.6549 23.9886 14.3596 24.3529 14.0554C25.3618 13.3245 26.3407 12.7691 27.4714 12.2521C27.7024 10.8196 27.7024 10.8196 27.4714 9.20497C26.2768 7.99158 26.2768 7.99158 24.7099 7.04657C21.9169 5.20593 21.9169 5.20593 21.3771 4.12637C21.2819 2.60279 21.2819 2.60279 21.3771 1.0792C22.3928 0.0634826 22.3928 0.0634826 24.2338 0Z" fill="#E1D7D1"/>
<path d="M12.8058 0.507568C13.2876 0.528518 13.7695 0.549467 14.2659 0.571051C14.0983 1.74421 13.9307 2.91737 13.758 4.12607C14.1129 4.36503 14.4677 4.60398 14.8333 4.85017C15.2955 5.16638 15.7576 5.48258 16.2338 5.80836C16.6934 6.12064 17.153 6.43291 17.6265 6.75465C19.1313 7.90668 19.7647 8.76642 20.138 10.633C19.7639 12.7532 18.9009 13.3444 17.2575 14.6404C16.2973 15.299 16.2973 15.299 14.8055 16.0291C14.4598 16.2909 14.1142 16.5528 13.758 16.8226C13.5461 18.6641 13.5461 18.6641 13.758 20.3776C14.1037 20.4824 14.4494 20.5871 14.8055 20.695C16.8003 21.6288 18.4192 22.7552 19.8523 24.4405C20.2812 26.351 20.0729 27.1109 19.0906 28.7891C16.8851 30.9393 14.8674 32.5663 11.7266 32.5663C11.7266 31.8959 11.7266 31.2255 11.7266 30.5348C12.8379 29.657 14.0144 29.0238 15.2479 28.3308C16.4195 27.5544 16.4195 27.5544 16.6961 26.1208C16.7321 25.7339 16.7681 25.347 16.8052 24.9484C16.218 24.5349 16.218 24.5349 15.6189 24.1132C14.8549 23.5682 14.8549 23.5682 14.0754 23.0121C13.5687 22.6527 13.062 22.2933 12.54 21.923C11.2187 20.8855 11.2187 20.8855 10.203 19.3619C10.203 17.9018 10.203 17.9018 10.7109 16.3147C11.729 15.3202 12.6046 14.5682 13.758 13.7754C14.048 13.5744 14.3381 13.3735 14.6369 13.1664C15.3527 12.6818 16.0781 12.2114 16.8052 11.744C16.6441 10.1271 16.4828 9.38576 15.3014 8.2326C14.8969 7.94586 14.4923 7.65912 14.0754 7.36369C11.1857 5.28341 11.1857 5.28341 10.203 4.12607C10.0443 2.82468 10.0443 2.82468 10.203 1.58677C11.2187 0.571051 11.2187 0.571051 12.8058 0.507568Z" fill="#E1D7D1"/>
<path d="M0.554316 0.571533C1.72747 0.571533 2.90062 0.571533 4.10933 0.571533C3.92079 1.07432 3.73224 1.5771 3.53799 2.09511C3.31915 3.08592 3.31915 3.08592 3.60147 4.12656C5.12925 5.71716 6.88077 6.92499 8.68006 8.18944C9.01525 8.52463 9.35044 8.85982 9.69578 9.20516C9.6579 11.2509 9.5815 12.3666 8.10872 13.8394C7.62689 14.1536 7.14506 14.4679 6.64863 14.7916C6.0017 15.2551 5.35633 15.7207 4.71241 16.1882C3.91111 16.7539 3.91111 16.7539 3.09361 17.3309C3.13339 18.5368 3.13339 18.5368 3.60147 19.8702C4.86221 20.93 4.86221 20.93 6.3947 21.8382C9.08272 23.711 9.08272 23.711 10.0449 25.7424C9.50976 28.4182 7.76928 29.4936 5.63291 31.0432C5.28135 31.3319 4.9298 31.6206 4.56759 31.918C3.60147 32.5668 3.60147 32.5668 2.20486 32.408C1.82777 32.2928 1.45069 32.1776 1.06217 32.0589C1.6895 30.1769 2.20193 30.0776 3.88714 29.1387C5.13988 28.3931 5.13988 28.3931 6.14077 27.4881C6.52376 25.5804 6.52376 25.5804 6.14077 23.9331C5.78463 23.8179 5.42849 23.7027 5.06157 23.584C3.21619 22.7415 1.9753 21.8314 0.554316 20.3781C-0.0487672 18.6006 -0.0487672 18.6006 0.0464564 16.8231C1.07626 15.4715 2.13069 14.5821 3.54791 13.6529C3.86935 13.4421 4.19079 13.2313 4.52197 13.0141C4.829 12.8308 5.13604 12.6475 5.45238 12.4586C6.2548 11.756 6.2548 11.756 6.37883 10.5105C6.05785 8.75053 5.39731 8.37478 3.95062 7.36417C0.8544 5.16041 0.8544 5.16041 0.0464564 4.12656C0.205162 2.25382 0.205162 2.25382 0.554316 0.571533Z" fill="#E1D7D1"/>
</svg>
