<svg width="37" height="36" viewBox="0 0 37 36" fill="none" xmlns="http://www.w3.org/2000/svg">
<path d="M16.1877 0C17.5208 0.158706 17.5208 0.158706 18.4096 1.0792C19.0444 2.19015 19.0444 2.19015 19.5523 3.71373C19.8874 2.54057 20.2226 1.36741 20.568 0.158706C21.4059 0.3263 22.2439 0.493894 23.1073 0.666567C23.1515 2.41226 23.1786 4.1578 23.2025 5.90388C23.2153 6.39979 23.228 6.89569 23.2412 7.40663C23.2461 7.8829 23.251 8.35917 23.2561 8.84987C23.264 9.2887 23.272 9.72752 23.2802 10.1797C23.0709 11.574 22.7046 12.0245 21.5837 12.8552C20.5442 12.8413 20.5442 12.8413 19.5523 12.3474C18.9095 11.2979 18.9095 11.2979 18.4096 10.0302C18.2394 9.61061 18.0692 9.19097 17.8938 8.75861C17.7707 8.43455 17.6476 8.11049 17.5208 7.77661C17.3532 9.28496 17.1856 10.7933 17.013 12.3474C16.175 12.3474 15.337 12.3474 14.4737 12.3474C14.459 10.4111 14.4499 8.47495 14.4419 6.5387C14.4377 5.98584 14.4334 5.43298 14.429 4.86336C14.4274 4.33799 14.4258 3.81262 14.4241 3.27134C14.4214 2.78463 14.4188 2.29793 14.416 1.79648C14.4963 0.22213 14.6255 0.205546 16.1877 0Z" fill="#E1D7D1"/>
<path d="M4.56917 20.6316C6.83509 21.0767 7.57945 21.6197 8.88597 23.52C9.23238 25.0546 9.11729 25.9637 8.88597 27.5829C8.09244 28.8208 8.09244 28.8208 6.85454 29.6144C4.95006 29.9953 4.95006 29.9953 3.29952 30.1222C3.29952 31.1278 3.29952 32.1334 3.29952 33.1694C2.45843 33.3635 1.61111 33.532 0.760225 33.6773C-0.334202 32.5828 0.0878785 30.2642 0.0619184 28.7574C0.0429332 28.3492 0.023948 27.941 0.00438751 27.5204C-0.0270465 25.3847 0.0776329 23.9462 1.42282 22.2306C2.79166 20.9807 2.79166 20.9807 4.56917 20.6316Z" fill="#E1D7D1"/>
<path d="M30.2161 20.9809C30.5513 22.4892 30.8865 23.9976 31.2318 25.5516C31.4708 25.2583 31.7097 24.965 31.9559 24.6628C32.2721 24.2858 32.5883 23.9087 32.9141 23.5202C33.2264 23.1431 33.5386 22.766 33.8604 22.3775C34.7868 21.4887 34.7868 21.4887 36.3104 21.4887C36.1208 24.206 35.2968 25.3023 33.2632 27.0752C33.7904 28.2106 34.296 29.1269 35.1042 30.0906C35.9602 31.3745 35.9286 32.1648 35.8025 33.6774C34.5941 33.5879 33.9223 33.3233 33.0708 32.4573C32.4399 31.6934 31.8343 30.9089 31.2318 30.1223C30.729 31.8821 30.729 31.8821 30.2161 33.6774C29.3781 33.5098 28.5402 33.3422 27.6768 33.1695C27.6621 31.2333 27.6531 29.2971 27.6451 27.3609C27.6408 26.808 27.6365 26.2551 27.6322 25.6855C27.6305 25.1601 27.6289 24.6348 27.6272 24.0935C27.6245 23.6068 27.6219 23.1201 27.6191 22.6186C27.7208 20.6254 28.1069 20.9809 30.2161 20.9809Z" fill="#E1D7D1"/>
<path d="M9.39458 30.6306C10.9575 30.8674 12.094 31.2185 13.5209 31.932C16.9352 33.4602 21.0479 32.7911 24.6304 32.1542C24.7979 32.8246 24.9655 33.4949 25.1382 34.1856C21.6493 36.228 17.9122 36.1056 13.9653 35.7092C11.9333 35.0783 10.4048 34.1802 8.88672 32.6621C9.07717 31.5829 9.07717 31.5829 9.39458 30.6306Z" fill="#E1D7D1"/>
<path d="M11.4266 6.76102C11.3314 7.64977 11.3314 7.64977 10.9188 8.79246C10.5417 9.07527 10.1646 9.35809 9.77608 9.64947C6.97986 12.0009 5.66348 15.6179 4.31659 18.9497C3.64622 18.6145 2.97584 18.2793 2.28516 17.9339C2.66373 13.391 4.63542 9.95099 7.87161 6.76102C9.22589 6.08388 9.98776 6.42023 11.4266 6.76102Z" fill="#E1D7D1"/>
<path d="M25.6465 6.25282C26.6939 6.03063 26.6939 6.03063 28.1858 6.25282C31.1758 8.35742 33.0735 11.4841 34.2801 14.8865C34.4572 16.1623 34.4203 17.1512 34.2801 18.4415C33.4421 18.4415 32.6042 18.4415 31.7408 18.4415C31.6413 18.0912 31.5418 17.741 31.4393 17.3801C30.3561 13.9767 29.0215 11.7831 26.4638 9.2861C25.6465 8.28427 25.6465 8.28427 25.6465 6.25282Z" fill="#E1D7D1"/>
</svg>
