<svg width="37" height="28" viewBox="0 0 37 28" fill="none" xmlns="http://www.w3.org/2000/svg">
<path d="M31.8676 14.295C32.3993 14.2815 32.9309 14.2681 33.4787 14.2542C34.8705 14.4734 34.8705 14.4734 35.7458 15.3264C36.988 17.6896 36.9735 19.9069 36.2679 22.412C35.4289 24.6101 34.4967 25.6084 32.492 26.8421C30.9162 27.4962 30.9162 27.4962 29.162 27.3178C26.9919 25.6581 24.9697 23.7001 23.9292 21.1335C23.6886 19.2894 23.8637 18.4102 24.7022 16.7331C26.6468 14.4814 28.9992 14.3283 31.8676 14.295Z" fill="#E1D7D1"/>
<path d="M5.5246 14.8005C8.61816 15.0627 10.0031 16.6307 11.9244 18.8887C13.2157 20.6867 13.3102 22.8042 12.9873 24.9393C12.0977 26.0958 11.4263 26.6712 10.1331 27.3179C9.05441 27.3889 7.97318 27.4232 6.89227 27.4368C6.01935 27.4552 6.01935 27.4552 5.12879 27.4739C3.36502 27.3077 2.49958 26.9406 1.09453 25.8907C-0.142465 24.2414 -0.115055 22.6586 0.143105 20.6578C2.8841 15.0496 2.8841 15.0496 5.5246 14.8005Z" fill="#E1D7D1"/>
<path d="M12.9875 3.53163C14.4988 4.15587 15.1512 4.60065 15.9904 5.99941C16.6074 8.52337 16.6248 10.4083 15.6337 12.7784C14.8904 13.9974 14.8904 13.9974 14.4146 14.4731C11.1394 14.8626 8.59763 14.4143 5.85182 12.5703C4.9004 11.6188 4.9004 11.6188 4.63281 9.89435C4.67104 7.57078 5.86402 6.37703 7.40904 4.75251C9.07842 3.23797 10.8312 3.30399 12.9875 3.53163Z" fill="#E1D7D1"/>
<path d="M29.5483 2.84766C31.0646 3.05578 31.0646 3.05578 32.4323 4.03695C33.4432 5.43437 33.4432 5.43437 33.8 6.98045C33.2841 9.55988 32.0456 11.2789 30.1132 13.0459C28.287 13.6649 27.4223 13.751 25.6237 13.1053C24.6016 11.7153 24.5898 10.6641 24.6592 8.96509C25.142 6.44999 26.8865 3.26171 29.5483 2.84766Z" fill="#E1D7D1"/>
<path d="M17.1505 20.0032C19.5946 20.0739 20.9885 21.1079 22.7476 22.7627C23.8608 23.9464 24.4121 24.624 24.3754 26.2767C23.9294 27.3173 23.9294 27.3173 22.978 27.793C20.7657 28.063 19.126 28.0118 17.1208 26.9903C15.8384 25.8869 14.8217 24.9586 13.9395 23.5116C14.0524 21.083 14.6795 20.2503 17.1505 20.0032Z" fill="#E1D7D1"/>
<path d="M22.5015 0.2017C23.3191 0.748031 23.3191 0.748031 23.9287 1.62885C24.1516 2.96681 24.1516 2.96681 24.1665 4.48316C24.1812 4.98355 24.1959 5.48395 24.2111 5.99951C23.9287 7.33746 23.9287 7.33746 22.8026 8.21828C21.4359 8.81442 20.6423 8.99684 19.1715 8.76462C17.7832 7.78764 17.2336 6.57442 16.793 4.95887C16.8759 3.35533 16.9977 2.12306 17.7741 0.707149C19.2507 -0.102595 20.8626 -0.135337 22.5015 0.2017Z" fill="#E1D7D1"/>
<path d="M21.551 11.6191C22.7105 12.3624 22.7105 12.3624 23.4538 13.522C23.4836 15.2167 23.4836 15.2167 22.9781 16.852C21.6076 18.1395 20.4288 18.3682 18.6075 18.4278C16.7939 18.2791 16.7939 18.2791 15.8425 17.3277C15.6046 15.7519 15.6046 15.7519 15.8425 13.9977C17.5827 12.0503 18.9173 11.1038 21.551 11.6191Z" fill="#E1D7D1"/>
</svg>
